<svg xmlns="http://www.w3.org/2000/svg" fill="none" width="16" height="17" viewBox="0 0 16 17">
  <path fill="#667085" d="M12 8c0-1-.4-1.8-1.2-2.5-.7-.6-1.7-1-2.8-1-1 0-2 .4-2.8 1C4.4 6.2 4 7 4 8c0 1.5-.4 2.6-.8 3.4-.6.9-.9 1.4-.8 1.5v.2h11.1l.1-.2c0-.1-.2-.6-.8-1.5-.4-.8-.8-2-.8-3.4Z"/>
  <path stroke="#667085" stroke-linecap="round" stroke-linejoin="round" d="M10 13.2a2 2 0 1 1-4 0m3.2-8.5A1.7 1.7 0 0 0 8 1.8a1.7 1.7 0 0 0-1.2 2.9M12 8c0-1-.4-1.8-1.2-2.5-.7-.6-1.7-1-2.8-1-1 0-2 .4-2.8 1C4.4 6.2 4 7 4 8c0 1.5-.4 2.6-.8 3.4-.6.9-.9 1.4-.8 1.5v.2h11.1l.1-.2c0-.1-.2-.6-.8-1.5-.4-.8-.8-2-.8-3.4Z"/>
</svg>