<svg xmlns="http://www.w3.org/2000/svg" width="20" height="20" fill="none" viewBox="0 0 20 20">
  <g stroke="#667085" stroke-linecap="round" stroke-linejoin="round" stroke-width="1.7" clip-path="url(#a)">
    <path d="M10 12.5a2.5 2.5 0 1 0 0-5 2.5 2.5 0 0 0 0 5Z"/>
    <path d="M15.6 12.3a1.3 1.3 0 0 0 .3 1.4h0a1.5 1.5 0 1 1-2.1 2.1h0a1.2 1.2 0 0 0-1.5-.3 1.3 1.3 0 0 0-.7 1.2v.1a1.5 1.5 0 1 1-3 0v0a1.2 1.2 0 0 0-.9-1.2 1.2 1.2 0 0 0-1.4.3h0a1.5 1.5 0 1 1-2.1-2.1h0a1.2 1.2 0 0 0 .3-1.5 1.3 1.3 0 0 0-1.2-.7h-.1a1.5 1.5 0 1 1 0-3h0a1.3 1.3 0 0 0 1.2-.9A1.2 1.2 0 0 0 4 6.3h0a1.5 1.5 0 1 1 2.1-2.1h0a1.3 1.3 0 0 0 1.5.3h0a1.3 1.3 0 0 0 .8-1.2v-.1a1.5 1.5 0 1 1 3 0v0a1.3 1.3 0 0 0 .8 1.2 1.3 1.3 0 0 0 1.4-.3h0a1.5 1.5 0 1 1 2.1 2.1h0a1.2 1.2 0 0 0-.3 1.5v0a1.3 1.3 0 0 0 1.2.8h.1a1.5 1.5 0 1 1 0 3h0a1.2 1.2 0 0 0-1.2.8Z"/>
  </g>
  <defs>
    <clipPath id="a">
      <path fill="#fff" d="M0 0h20v20H0z"/>
    </clipPath>
  </defs>
</svg>